<svg version="1.1" xmlns="http://www.w3.org/2000/svg" xmlns:xlink="http://www.w3.org/1999/xlink" width="180.67648" height="255.71009" viewBox="0,0,180.67648,255.71009"><g transform="translate(-149.66176,-52.14496)"><g data-paper-data="{&quot;isPaintingLayer&quot;:true}" fill-rule="nonzero" stroke-linecap="butt" stroke-linejoin="miter" stroke-miterlimit="10" stroke-dasharray="" stroke-dashoffset="0" style="mix-blend-mode: normal"><g><path d="M149.66176,290.32749c0,-50.35162 0,-193.5811 0,-221.1352c0,-8.96807 8.34268,-17.04733 16.84686,-17.04733c20.67817,0 108.71405,0 146.49445,0c10.67293,0 17.33516,8.46469 17.33516,17.76764c0,27.54567 0,166.28978 0,218.25396c0,12.25918 -6.18873,19.68849 -12.94033,19.68849c-18.79894,0 -108.8434,0 -148.69187,0c-11.67748,0 -19.04428,-6.56081 -19.04428,-17.52756z" fill="#e4b943" stroke="none" stroke-width="0"/><path d="M167.88587,268.07089c0,-40.1941 0,-154.5296 0,-176.52513c0,-7.15891 6.65971,-13.60835 13.4483,-13.60835c16.50674,0 86.78295,0 116.94183,0c8.51986,0 13.83812,6.75708 13.83812,14.18334c0,21.98884 0,132.74379 0,174.22516c0,9.78609 -4.94027,15.71669 -10.32987,15.71669c-15.0066,0 -86.88623,0 -118.69596,0c-9.32174,0 -15.20243,-5.23726 -15.20243,-13.9917z" fill="#e8e8da" stroke="none" stroke-width="0"/><g stroke-width="2" font-family="Handwriting" font-weight="normal" font-size="40" text-anchor="start"><g fill="#966917" stroke="#966917"><text transform="translate(196.45622,226.14614) rotate(-25.70974) scale(1.7529,1.7529)" font-size="40" xml:space="preserve" fill="#966917" fill-rule="nonzero" stroke="#966917" stroke-width="2" stroke-linecap="butt" stroke-linejoin="miter" stroke-miterlimit="10" stroke-dasharray="" stroke-dashoffset="0" font-family="Handwriting" font-weight="normal" text-anchor="start" style="mix-blend-mode: normal"><tspan x="0" dy="0">10</tspan></text><text transform="translate(252.95328,173.44502) rotate(-25.70981) scale(0.94349,0.94349)" font-size="40" xml:space="preserve" fill="#966917" fill-rule="nonzero" stroke="#966917" stroke-width="2" stroke-linecap="butt" stroke-linejoin="miter" stroke-miterlimit="10" stroke-dasharray="" stroke-dashoffset="0" font-family="Handwriting" font-weight="normal" text-anchor="start" style="mix-blend-mode: normal"><tspan x="0" dy="0">100</tspan></text></g><g fill="#e7a52b" stroke="#e7a52b"><text transform="translate(194.22077,224.82412) rotate(-25.70974) scale(1.7529,1.7529)" font-size="40" xml:space="preserve" fill="#e7a52b" fill-rule="nonzero" stroke="#e7a52b" stroke-width="2" stroke-linecap="butt" stroke-linejoin="miter" stroke-miterlimit="10" stroke-dasharray="" stroke-dashoffset="0" font-family="Handwriting" font-weight="normal" text-anchor="start" style="mix-blend-mode: normal"><tspan x="0" dy="0">10</tspan></text><text transform="translate(250.71783,172.12296) rotate(-25.70964) scale(0.94345,0.94345)" font-size="40" xml:space="preserve" fill="#e7a52b" fill-rule="nonzero" stroke="#e7a52b" stroke-width="2" stroke-linecap="butt" stroke-linejoin="miter" stroke-miterlimit="10" stroke-dasharray="" stroke-dashoffset="0" font-family="Handwriting" font-weight="normal" text-anchor="start" style="mix-blend-mode: normal"><tspan x="0" dy="0">100</tspan></text></g></g></g></g></g></svg>