<svg version="1.1" xmlns="http://www.w3.org/2000/svg" xmlns:xlink="http://www.w3.org/1999/xlink" width="180.33333" height="255.21623" viewBox="0,0,180.33333,255.21623"><defs><radialGradient cx="346.05073" cy="302.65794" r="428.97936" gradientUnits="userSpaceOnUse" id="color-1"><stop offset="0" stop-color="#e8e8da"/><stop offset="1" stop-color="#e8e8da" stop-opacity="0"/></radialGradient></defs><g transform="translate(-149.83333,-52.39188)"><g data-paper-data="{&quot;isPaintingLayer&quot;:true}" fill-rule="nonzero" stroke-linecap="butt" stroke-linejoin="miter" stroke-miterlimit="10" stroke-dasharray="" stroke-dashoffset="0" style="mix-blend-mode: normal"><g><path d="M149.83334,290.11441c0,-50.25438 0,-193.20724 0,-220.70812c0,-8.95076 8.32683,-17.01441 16.81486,-17.01441c20.63889,0 108.50757,0 146.21622,0c10.65265,0 17.30225,8.44835 17.30225,17.73333c0,27.49246 0,165.96862 0,217.83244c0,12.2355 -6.17698,19.65046 -12.91576,19.65046c-18.76324,0 -108.63668,0 -148.40946,0c-11.65529,0 -19.00811,-6.54813 -19.00811,-17.4937z" fill="#339fff" stroke="none" stroke-width="0"/><path d="M168.02282,267.90082c0,-40.11647 0,-154.23115 0,-176.18421c0,-7.14508 6.64706,-13.58207 13.42275,-13.58207c16.47538,0 86.61813,0 116.71973,0c8.50368,0 13.81184,6.74403 13.81184,14.15594c0,21.94637 0,132.48742 0,173.88867c0,9.7672 -4.93088,15.68635 -10.31025,15.68635c-14.9781,0 -86.72121,0 -118.47052,0c-9.30403,0 -15.17355,-5.22715 -15.17355,-13.96467z" fill="#e8e8da" stroke="none" stroke-width="0"/><path d="M275.60036,148.56301c-39.85847,-1.09599 -37.57384,55.40442 -61.97591,55.40442c-24.40206,0 -29.35704,-14.28287 -29.35704,-29.74344c0,-15.46057 4.36624,-26.37537 28.76395,-26.82739c31.4767,-0.58322 28.42918,56.30908 61.4099,56.59675c31.73755,0.27682 29.00283,-54.66469 1.1591,-55.43034z" fill="none" stroke="#e7a52b" stroke-width="15"/><path d="M179.17825,77.92855c16.2955,-0.01417 92.40569,-1.29701 120.61183,-0.72737c6.53393,0.13196 12.55284,7.36893 12.60106,16.42799c0.12944,24.316 -0.40494,139.44914 -0.58559,176.93116c-0.03586,7.44297 -6.5563,11.81903 -13.21857,11.81389c-16.14658,-0.01243 -84.79079,-0.06517 -115.75474,-0.089c-9.34647,-0.00719 -15.25532,-5.77882 -15.24841,-15.31603c0.03019,-41.51125 0.1079,-154.44637 0.07501,-174.1386c-0.00947,-5.67101 5.5836,-14.89686 11.51939,-14.90203z" fill="url(#color-1)" stroke="none" stroke-width="0"/></g></g></g></svg>